<svg xmlns="http://www.w3.org/2000/svg" viewBox="0 0 64 64" width="64" height="64">
  <!-- uploadmylaser icon: uploadmycode's face with laser eyes. Generated by scripts/make-icons.mjs, edit it there. -->
  <rect x="0" y="0" width="64" height="64" rx="14" fill="#4C1D95"/>
  <polygon points="32,5 23,15 41,15" fill="#A78BFA"/>
  <rect x="29" y="14" width="6" height="7" rx="0" fill="#A78BFA"/>
  <rect x="7" y="51" width="50" height="8" rx="2" fill="#E9C58F"/>
  <rect x="10" y="54" width="16" height="1" rx="0.5" fill="#D4A86A"/>
  <rect x="36" y="56" width="17" height="1" rx="0.5" fill="#D4A86A"/>
  <rect x="14" y="20" width="36" height="25" rx="7" fill="#AEB6C0"/>
  <path d="M27 38 Q32 42.5 37 38" fill="none" stroke="#0F3D40" stroke-width="2.6" stroke-linecap="round"/>
  <polygon points="23.48,29.49 15.48,53.49 18.52,54.51 26.52,30.51" fill="#FFB3B3"/>
  <polygon points="37.48,30.51 45.48,54.51 48.52,53.49 40.52,29.49" fill="#FFB3B3"/>
  <polygon points="24.24,29.75 16.24,53.75 17.76,54.25 25.76,30.25" fill="#FF3B3B"/>
  <polygon points="38.24,30.25 46.24,54.25 47.76,53.75 39.76,29.75" fill="#FF3B3B"/>
  <circle cx="25" cy="30" r="3.6" fill="#0F3D40"/>
  <circle cx="39" cy="30" r="3.6" fill="#0F3D40"/>
  <circle cx="25" cy="30" r="1.7" fill="#FF3B3B"/>
  <circle cx="39" cy="30" r="1.7" fill="#FF3B3B"/>
  <circle cx="26" cy="28.8" r="0.8" fill="#FFFFFF"/>
  <circle cx="40" cy="28.8" r="0.8" fill="#FFFFFF"/>
  <polygon points="17,50.5 18.2,53 21,54 18.2,55 17,57.5 15.8,55 13,54 15.8,53" fill="#FFD166"/>
  <polygon points="47,50.5 48.2,53 51,54 48.2,55 47,57.5 45.8,55 43,54 45.8,53" fill="#FFD166"/>
</svg>
